# xmcd
#
# Track frame offsets:
#	150
#	18392
#	36052
#	48657
#	64775
#	81907
#	95222
#	110515
#	128120
#	146542
#	166097
#	178737
#
# Disc length: 2605 seconds
#
# Revision: 12
# Processed by: cddbd v1.5.2PL0 Copyright (c) Steve Scherf et al.
# Submitted via: audiograbber 1.83.01
#
DISCID=a40a2b0c
DTITLE=Trisha Yearwood - {Songbook} - A Collection Of Hits
DYEAR=1997
DGENRE=Oldies
TTITLE0=How Do I Live (From The Movie 'Con Air')
TTITLE1=The Song Remembers When
TTITLE2=The Wrong Side Of Memphis
TTITLE3=In Another's Eyes
TTITLE4=The Woman Before Me
TTITLE5=Perfect Love
TTITLE6=Thinkin' About You
TTITLE7=Down On My Knees
TTITLE8=She's In Love With The Boy
TTITLE9=Walkaway Joe
TTITLE10=XXX's And OOO's (An American Girl)
TTITLE11=Like We Never Had A Broken Heart
EXTD=
EXTT0=
EXTT1=
EXTT2=
EXTT3=
EXTT4=
EXTT5=
EXTT6=
EXTT7=
EXTT8=
EXTT9=
EXTT10=
EXTT11=
PLAYORDER=
